<?xml version="1.0" encoding="utf-8"?>
<!-- Generator: Adobe Illustrator 24.2.3, SVG Export Plug-In . SVG Version: 6.00 Build 0)  -->
<svg version="1.1" xmlns="http://www.w3.org/2000/svg" xmlns:xlink="http://www.w3.org/1999/xlink" x="0px" y="0px"
	 viewBox="0 0 750 414" style="enable-background:new 0 0 750 414;" xml:space="preserve">
<style type="text/css">
	.st0{fill:#E4EBF7;}
	.st1{fill:#FFFFFF;}
	.st2{fill:#ABDAF7;}
	.st3{fill:#70B2DD;}
	.st4{fill:#F29C8B;}
	.st5{fill:url(#SVGID_1_);}
	.st6{fill:#3150BC;}
	.st7{fill:#78AAF9;}
	.st8{fill:#FEB19E;}
	.st9{fill:#525559;}
	.st10{fill:url(#SVGID_2_);}
	.st11{fill:#FF856A;}
	.st12{fill:#1B3151;}
	.st13{fill:#23406D;}
	.st14{fill:#4E79B7;}
	.st15{opacity:0.49;fill:#1B3151;}
	.st16{fill:url(#SVGID_3_);}
	.st17{fill:url(#SVGID_4_);}
	.st18{fill:url(#SVGID_5_);}
	.st19{fill:url(#SVGID_6_);}
</style>
<g id="BACKGROUND">
</g>
<g id="OBJECTS">
	<g>
		<g>
			<path class="st0" d="M747.49,343.88c-0.24,0.97-0.44,1.91-0.71,2.88c-3.97,15.56-11.7,32.23-23.67,49.72l-60.37-0.18h-3.18
				l-325.69-0.91h-3.79l-63.1-0.18l-4.09-0.03l-200.43-0.56c0,0-52.05-61.22,17.64-118.5c32.67-26.82,76.57-22.67,110.01-26.14
				c1.44-0.18,2.88-0.32,4.29-0.53c35.43-4.62,57.28-20.35,37.14-97.54c-2.76-10.59-3.79-21.26-3.23-31.79
				c0.06-1.47,0.18-2.94,0.32-4.41c6.68-71.63,85.22-133.47,175.73-96.86c1.65,0.65,3.29,1.35,4.94,2.09
				c20,8.85,40.52,22.52,60.93,41.99c17.08,16.29,31.96,31.02,45.17,44.4c1.5,1.53,2.97,3.03,4.44,4.53
				c63.57,64.93,85.51,96.36,119.47,114.83c0.91,0.47,1.79,0.97,2.73,1.44c9.85,5.06,20.76,9.12,34.02,12.64
				c14.29,3.79,26.82,9.26,37.29,16.14c0.88,0.59,1.73,1.18,2.56,1.76C743.34,278.02,755.72,307.77,747.49,343.88z"/>
			<path class="st0" d="M655.21,62.95c-52.83-40.15-121.42-30.73-107.62,0c13.8,30.73,73.43,109.87,115.66,96.03
				C705.47,145.13,690.23,89.56,655.21,62.95z"/>
			<path class="st1" d="M715.91,258.7c-44.87,36.02-85.3,54.16-120.8,54.16c-8.88,0-17.47-1.15-25.73-3.41
				c-53.11-14.59-93.27-75.78-119.36-181.81c-11.56-47.14-27.99-82.42-45.67-108.77c1.65,0.65,3.29,1.35,4.94,2.09
				c16.85,26.2,32.43,60.69,43.58,105.98c25.82,104.95,65.28,165.41,117.27,179.7c40.2,11.03,88.22-5.68,143.2-49.7
				C714.23,257.52,715.08,258.11,715.91,258.7z"/>
			<path class="st1" d="M642.04,228.14c-13.53,13.14-26.64,19.76-39.26,19.76c-2.85,0-5.68-0.35-8.5-1.03
				c-37.9-9.17-63.43-78.04-78.89-139.53c1.5,1.53,2.97,3.03,4.44,4.53c15.47,59.37,40.05,123.65,75.16,132.15
				c13.94,3.35,28.79-2.44,44.31-17.32C640.22,227.17,641.1,227.67,642.04,228.14z"/>
			<path class="st1" d="M333.87,395.4h-3.79c24.49-30.14,36.73-62.46,35.93-95.86c-1.47-61.78-47.02-114.48-91.54-139.29
				c-19.44-10.85-34.49-24.91-46.17-40.11c0.06-1.47,0.18-2.94,0.32-4.41c11.7,15.91,27.08,30.7,47.28,41.96
				c45.23,25.23,91.54,78.84,93.04,141.79C369.57,325.42,362.48,359.29,333.87,395.4z"/>
			<path class="st1" d="M266.97,395.23l-4.09-0.03c14.91-17.61,24.58-37.14,23.97-56.28c-0.82-25.41-19.14-46.75-54.43-63.43
				c-15.11-7.15-29.23-15.85-42.31-25.49c1.44-0.18,2.88-0.32,4.29-0.53c12.2,8.79,25.32,16.73,39.29,23.35
				c36.37,17.2,55.25,39.4,56.11,65.99C290.44,358.68,281.06,378.05,266.97,395.23z"/>
			<path class="st1" d="M747.49,343.88c-0.24,0.97-0.44,1.91-0.71,2.88c-21.82-1.82-40.29,2.44-55.19,12.79
				c-13.5,9.35-22.64,22.76-28.85,36.76h-3.18c6.38-14.82,15.97-29.2,30.35-39.17C705.5,346.32,724.79,341.88,747.49,343.88z"/>
		</g>
		<g>
			<path class="st2" d="M154.26,208.77c0,0-5.96,6.38-8.77,34.3c-2.77,27.67-26.81,41.8-45.84,43.26c-0.13,0-0.26,0.03-0.38,0.03
				l-0.1-0.35l-0.7-2.65l-4.85-17.82c0,0-5.99-48.87,58.5-56.56C152.83,208.93,153.53,208.84,154.26,208.77z"/>
			<path class="st2" d="M104.45,396.48c0,0,1.2-143.46-23.11-190.09c-24.31-46.63-75.72-54.6-75.72-54.6s54.99,14.35,75.72,69.74
				c20.72,55.39,14.35,174.94,14.35,174.94H104.45z"/>
			<g>
				<path class="st2" d="M96.49,369.39c-79.03-0.48-80.12-88.21-80.12-93.06c0-0.13,0-0.19,0-0.19
					C34.74,303.55,99.65,301.19,96.49,369.39z"/>
				<path class="st3" d="M96.49,369.39c-79.03-0.48-80.12-88.21-80.12-93.06c0.16,3.83,3.22,62.01,38.67,71.99
					C91.68,358.61,96.49,369.39,96.49,369.39z"/>
			</g>
			<g>
				<path class="st2" d="M171.8,330.33c-9.15,25.09,4.37,50.59-18.71,66.15h-40.26C112.82,396.48,110.43,340.31,171.8,330.33z"/>
				<path class="st3" d="M171.8,330.33c-9.15,25.09,4.37,50.59-18.71,66.15h-15.24C157.54,379.56,159.97,349.11,171.8,330.33z"/>
			</g>
			<path class="st3" d="M154.26,208.77c0,0-5.96,6.38-8.77,34.3c-2.77,27.67-26.81,41.8-45.84,43.26l-0.48-0.32l-2.68-1.91
				c0.67-0.22,1.34-0.48,1.98-0.73c39.24-14.79,39.6-51.58,53.65-74.38C152.83,208.93,153.53,208.84,154.26,208.77z"/>
			<g>
				<path class="st2" d="M93.59,246.81l-0.25,0.06c-3.99,0.89-50.31,10.46-59.97-35.48c-9.44-45.05-25.6-57.99-27.58-59.46
					c-0.03-0.03-0.06-0.06-0.1-0.1C94.23,165.96,93.59,246.81,93.59,246.81z"/>
				<path class="st3" d="M93.59,246.81l-0.25,0.06c-3.99,0.89-50.31,10.46-59.97-35.48c-9.44-45.05-25.6-57.99-27.58-59.46
					C49.57,175.11,28.43,239.7,93.59,246.81z"/>
			</g>
		</g>
		<rect x="43.48" y="396.48" class="st3" width="704.56" height="15.14"/>
		<g>
			<path class="st1" d="M603.24,347.6c0,0,8.5-10.36,4.25-20.99c-2.66-6.66-7.17-6.38-17-18.33c-9.83-11.96-18.33-41.71,12.75-36.93
				c31.08,4.78,39.85,0.53,34.27-7.7c-5.58-8.24-24.46-20.46-17.15-36.66c7.32-16.21,35.48-10.63,62.84-8.24
				c27.36,2.39,18.33-9.56,35.07-1.59c16.74,7.97,16.74,53.67-21.78,50.74c-38.52-2.92-45.7-0.88-44.1,13.24
				c1.59,14.12,8.24,38.3-16.74,29.13c-24.97-9.17-18.13,2.73-13.55,12.55c5.84,12.55-8.5,24.77-8.5,24.77H603.24z"/>
			<path class="st1" d="M600.32,236.82c-8.11-1.62-16.74-14.88-23.64-3.19c-5.57,9.42,11.42,23.38,24.44,17.8
				C611.42,247.01,610.95,238.94,600.32,236.82z"/>
			<path class="st3" d="M637.52,390.64v-6.38c8.29,0,15.68-5.56,17.97-13.52l1.08-3.72c0.65-2.27,0.21-4.66-1.21-6.55
				c-1.42-1.89-3.59-2.97-5.96-2.97h-4.98v-6.38h4.98c4.39,0,8.41,2.01,11.05,5.52c2.64,3.51,3.45,7.93,2.24,12.15l-1.08,3.72
				C658.54,383.18,648.63,390.64,637.52,390.64z"/>
			<path class="st2" d="M648.28,347.9l-0.92,6.41l-4.81,33.16c-0.77,5.16-5.16,9.02-10.39,9.02H608.4c-5.23,0-9.69-3.86-10.39-9.05
				l-4.65-33.12l-0.89-6.44c-0.48-3.38,2.14-6.38,5.55-6.38h44.73C646.14,341.5,648.76,344.53,648.28,347.9z"/>
			<path class="st3" d="M648.28,347.9l-0.92,6.41h-54.01l-0.89-6.44c-0.48-3.38,2.14-6.38,5.55-6.38h44.73
				C646.14,341.5,648.76,344.53,648.28,347.9z"/>
		</g>
		<g>
			<g>
				<path class="st4" d="M547.59,396.48c0,0,7.52-5.69,4.78-31.48c-2.74-25.79-4.78-44.04-4.78-44.04l-56.39,6.18l6.38,51.61
					L547.59,396.48z"/>
				<linearGradient id="SVGID_1_" gradientUnits="userSpaceOnUse" x1="437.0356" y1="378.1893" x2="425.2735" y2="218.4201">
					<stop  offset="0" style="stop-color:#3855E1"/>
					<stop  offset="1" style="stop-color:#5C7EF7"/>
				</linearGradient>
				<path class="st5" d="M498.25,340.31l7.49,56.17H320.84c0,0-18.33-136.58,20.72-168.11c17.12-13.84,38.99-20.08,58.09-22.76h0.06
					c24.45-3.41,44.41-0.96,44.41-0.96s4.62-0.03,11.7,0.61c15.91,1.4,44.28,6.03,61.08,21.46c24.29,22.32,35.45,112,35.45,112
					S530.99,343.5,498.25,340.31z"/>
				<path class="st6" d="M498.24,340.3l-8.44-1.2l-26.3-68.54c0,0,0.91,77.63-23.59,100.72c-24.5,23.09-86.13,11.93-86.13,11.93
					l-8.62-112.64l-18.48,57.67l12.22,68.26h166.84L498.24,340.3z"/>
				<path class="st7" d="M455.82,205.27c-1.66,15.49-6.22,38.07-19,47.34c-20.34,14.73-38.86,8.58-46.83-6.57
					c-7.97-15.14,1.59-37.04,4.18-38.86l5.48-1.56h0.06c24.45-3.41,44.41-0.96,44.41-0.96S448.74,204.63,455.82,205.27z"/>
			</g>
			<g>
				<path class="st4" d="M320.84,396.48H294c-17.22,0-30.12-15.79-26.69-32.67l11.28-55.4L320.84,396.48z"/>
				<path class="st8" d="M317.47,300.14c0,0,4.2-9.06,0-12.85c-4.2-3.79-9.38-3.59-9.38-3.59s-2.59-8.97-18.73-7.37
					c-16.14,1.59-17.68,16.72-8.64,23.9L317.47,300.14z"/>
				<path class="st9" d="M307.09,290.28l-18.01-47.9c-0.75-1.99-2.89-3.09-4.94-2.54l0,0c-2.41,0.65-3.7,3.27-2.75,5.57l19.12,46.26
					L307.09,290.28z"/>
			</g>
			<g>
				<linearGradient id="SVGID_2_" gradientUnits="userSpaceOnUse" x1="298.7168" y1="127.2735" x2="426.5969" y2="127.2735">
					<stop  offset="0" style="stop-color:#3F2323"/>
					<stop  offset="1" style="stop-color:#5E3434"/>
				</linearGradient>
				<path class="st10" d="M426.44,138.85c0,0,1.59-27.3-5.38-35.87c-6.97-8.57-14.43-5.38-14.43-5.38s0.08-13.15-16.86-16.94
					c-16.94-3.79-36.06-0.4-50.41,12.75c-14.35,13.15-35.47,6.32-35.47,15.61c0,9.29,13.15,12.75,13.15,12.75
					s-18.13-1.26-18.33,6.71c-0.2,7.97,12.95,21.92,30.69,21.52c0,0,3.99,26.1,29.49,25.31l38.65-13.35l25.7-13.55L426.44,138.85z"
					/>
				<path class="st8" d="M444.12,204.66c0,0-5.72,50.95-32.96,47.57c-15.1-1.88-16.07-15.18-14.76-23.85
					c0.77-5.45,2.55-9.63,2.55-9.63l-13.55-18.87l38.26-40.9C429.64,178.29,436.21,194.81,444.12,204.66z"/>
				<path class="st11" d="M396.39,228.38c0.77-5.45,2.55-9.63,2.55-9.63l-13.55-18.87l38.26-40.9
					C438.57,212.31,410.26,225.25,396.39,228.38z"/>
				<path class="st8" d="M341.56,152.6c0,0,27.54,60.93,56.32,58.71c24.18-1.86,31.75-41.58,25.77-52.34c0,0,10.76,1,8.37-11.56
					c-2.39-12.55-14.15-25.11-16.34,0c0,0-14.08,4.65-18.6-25.64c0,0-13.81,22.58-24.18,25.24c-10.36,2.66-7.44-7.7-7.44-7.7
					S359.09,149.41,341.56,152.6z"/>
			</g>
			<g>
				<g>
					<path class="st12" d="M415.58,396.48H313.31c-3.38,0-6.44-2.07-7.68-5.23l-3.32-8.42l-28.05-71.41
						c-2.14-5.42,1.85-11.29,7.68-11.29h101.09c3.35,0,6.38,2.04,7.65,5.13l32.55,79.83C425.47,390.55,421.45,396.48,415.58,396.48z
						"/>
					<path class="st13" d="M408.38,396.48h-95.07c-3.38,0-6.44-2.07-7.68-5.23l-3.32-8.42l-28.05-71.41
						c-2.14-5.42,1.85-11.29,7.68-11.29h93.89c0.83,0,1.66,0.13,2.42,0.38c2.33,0.7,4.27,2.42,5.23,4.75l32.55,79.83
						C418.23,390.55,414.25,396.48,408.38,396.48z"/>
					<path class="st14" d="M351,343.81c1.75,6.15-0.08,12.06-4.1,13.21c-4.02,1.15-8.7-2.9-10.46-9.05
						c-1.75-6.15,0.08-12.06,4.1-13.21C344.56,333.61,349.24,337.67,351,343.81z"/>
					<path class="st15" d="M415.58,396.48H313.31c-3.38,0-6.44-2.07-7.68-5.23l-3.32-8.42c50.5-5.26,69.59-57.07,75.94-82.32
						c0.03-0.13,0.06-0.25,0.1-0.38h4.69c3.35,0,6.38,2.04,7.65,5.13l32.55,79.83C425.47,390.55,421.45,396.48,415.58,396.48z"/>
				</g>
				<path class="st8" d="M547.59,396.48c0,0-11.56-44.23-127.12-66.55c0,0-8.77-20.32-27.1-21.52l2.79,12.75
					c0,0-20.32,4.18-39.25,1.79c-18.93-2.39-5.18,16.94,7.57,26.5c12.75,9.56,15.34,15.54,34.87,11.36
					c19.53-4.18,24.11-4.98,24.11-4.98s24.91,26.3,52.4,40.65H547.59z"/>
			</g>
		</g>
		<g>
			<radialGradient id="SVGID_3_" cx="211.684" cy="291.4617" r="48.4895" gradientUnits="userSpaceOnUse">
				<stop  offset="0" style="stop-color:#F7C759"/>
				<stop  offset="1" style="stop-color:#F79239"/>
			</radialGradient>
			<path class="st16" d="M256.28,272.95c0,0-11.16,1.06-18.07,13.02c-6.91,11.96-12.75,19.13-24.18,15.94
				c-11.42-3.19-9.83-27.36,8.24-34.27C240.09,260.82,256.28,272.95,256.28,272.95z"/>
			<radialGradient id="SVGID_4_" cx="153.5356" cy="182.6408" r="85.2349" gradientUnits="userSpaceOnUse">
				<stop  offset="0" style="stop-color:#F7C759"/>
				<stop  offset="1" style="stop-color:#F79239"/>
			</radialGradient>
			<path class="st17" d="M262.39,239.71c0,0-18.33-24.94-47.82-15.91c-29.49,9.03-57.12,11.69-73.32-15.94
				c-16.21-27.63-0.53-39.85,13.81-37.99c14.35,1.86,27.1,27.63,48.09,27.9C224.13,198.03,257.87,214.17,262.39,239.71z"/>
			<radialGradient id="SVGID_5_" cx="499.2427" cy="132.4" r="34.2456" gradientUnits="userSpaceOnUse">
				<stop  offset="0" style="stop-color:#F7C759"/>
				<stop  offset="1" style="stop-color:#F79239"/>
			</radialGradient>
			<path class="st18" d="M475.19,181.82c0,0-7.7-38.79,20.46-51.81c28.16-13.02,34.01,21.25,13.28,25.9S477.05,170.93,475.19,181.82
				z"/>
			<radialGradient id="SVGID_6_" cx="484.6258" cy="272.8617" r="50.4998" gradientUnits="userSpaceOnUse">
				<stop  offset="0" style="stop-color:#F7C759"/>
				<stop  offset="1" style="stop-color:#F79239"/>
			</radialGradient>
			<path class="st19" d="M403.19,292.34c0,0,8.04-11.16,31.25,1.33c23.21,12.49,46.86,22.05,63.33,3.19
				c16.47-18.86,5.05-40.86-11.96-35.84c-17,5.02-16.21,17.52-45.16,15.12C411.7,273.75,403.19,292.34,403.19,292.34z"/>
		</g>
		<g>
			
				<ellipse transform="matrix(0.2298 -0.9732 0.9732 0.2298 100.0352 275.3844)" class="st3" cx="224" cy="74.49" rx="46.36" ry="46.36"/>
			<circle class="st2" cx="224" cy="74.49" r="34.11"/>
			<path class="st3" d="M243.2,72.94h-16.8V50.24c0-1.79-1.45-3.24-3.24-3.24c-1.79,0-3.24,1.45-3.24,3.24V78.9h2.23h4.25h16.8
				c1.64,0,2.98-1.33,2.98-2.98C246.18,74.28,244.85,72.94,243.2,72.94z"/>
		</g>
	</g>
	<g>
		<g>
			<path class="st0" d="M486.98,29.31c1.93,0,1.93-3,0-3C485.05,26.31,485.05,29.31,486.98,29.31L486.98,29.31z"/>
		</g>
	</g>
</g>
</svg>
